<?xml version="1.0" encoding="utf-8"?>
<svg version="1.1" xmlns:xlink="http://www.w3.org/1999/xlink" width="262px" height="72px" xmlns="http://www.w3.org/2000/svg">
  <defs>
    <mask fill="white" id="clip32">
      <path d="M 43.42541436464088 72  C 38.89162606298868 72  34.53896497069145 71.44942858957879  30.45748066277787 70.42293755383639  C 12.646790947385501 65.9435589861445  0 52.40145488885933  0 36  C 0 15.840000000000053  19.10718232044197 0  43.42541436464088 0  L 218.5745856353591 0  C 242.89281767955802 0  262 15.840000000000053  262 36  C 262 56.15999999999995  242.89281767955802 72  218.5745856353591 72  L 43.42541436464088 72  Z " fill-rule="evenodd" />
    </mask>
  </defs>
  <g transform="matrix(1 0 0 1 -234 -481 )">
    <path d="M 43.42541436464088 72  C 38.89162606298868 72  34.53896497069145 71.44942858957879  30.45748066277787 70.42293755383639  C 12.646790947385501 65.9435589861445  0 52.40145488885933  0 36  C 0 15.840000000000053  19.10718232044197 0  43.42541436464088 0  L 218.5745856353591 0  C 242.89281767955802 0  262 15.840000000000053  262 36  C 262 56.15999999999995  242.89281767955802 72  218.5745856353591 72  L 43.42541436464088 72  Z " fill-rule="nonzero" fill="#ffffff" stroke="none" transform="matrix(1 0 0 1 234 481 )" />
    <path d="M 43.42541436464088 72  C 38.89162606298868 72  34.53896497069145 71.44942858957879  30.45748066277787 70.42293755383639  C 12.646790947385501 65.9435589861445  0 52.40145488885933  0 36  C 0 15.840000000000053  19.10718232044197 0  43.42541436464088 0  L 218.5745856353591 0  C 242.89281767955802 0  262 15.840000000000053  262 36  C 262 56.15999999999995  242.89281767955802 72  218.5745856353591 72  L 43.42541436464088 72  Z " stroke-width="2" stroke="#797979" fill="none" transform="matrix(1 0 0 1 234 481 )" mask="url(#clip32)" />
  </g>
</svg>